<svg width="20" height="20" viewBox="0 0 20 20" fill="none" xmlns="http://www.w3.org/2000/svg">
<path d="M20 9.99999C20 4.47714 15.5229 -7.62939e-06 10 -7.62939e-06C4.47715 -7.62939e-06 0 4.47714 0 9.99999C0 14.9913 3.65686 19.1283 8.4375 19.8785V12.8906H5.89844V9.99999H8.4375V7.79687C8.4375 5.29062 9.93043 3.90624 12.2146 3.90624C13.3087 3.90624 14.4531 4.10155 14.4531 4.10155V6.56249H13.1921C11.9499 6.56249 11.5625 7.33333 11.5625 8.12415V9.99999H14.3359L13.8926 12.8906H11.5625V19.8785C16.3431 19.1283 20 14.9913 20 9.99999Z" fill="#1877F2"/>
<path d="M13.8926 12.8906L14.3359 10H11.5625V8.12416C11.5625 7.33334 11.9499 6.5625 13.1921 6.5625H14.4531V4.10156C14.4531 4.10156 13.3087 3.90625 12.2146 3.90625C9.93043 3.90625 8.4375 5.29062 8.4375 7.79688V10H5.89844V12.8906H8.4375V19.8785C8.94662 19.9584 9.46844 20 10 20C10.5316 20 11.0534 19.9584 11.5625 19.8785V12.8906H13.8926Z" fill="white"/>
</svg>
