<svg width="20" height="17" viewBox="0 0 20 17" fill="none" xmlns="http://www.w3.org/2000/svg">
<g clip-path="url(#clip0)">
<path d="M19.6799 1.94001C19.2354 2.13877 18.7734 2.2961 18.2999 2.41001C18.8278 1.90953 19.22 1.28333 19.4399 0.590012C19.4508 0.546929 19.449 0.50161 19.4347 0.459535C19.4204 0.417461 19.3942 0.380433 19.3593 0.35293C19.3244 0.325426 19.2823 0.308625 19.238 0.304558C19.1938 0.300491 19.1493 0.309332 19.1099 0.330012C18.4518 0.719364 17.7412 1.01235 16.9999 1.20001H16.8699C16.7337 1.19991 16.6021 1.15014 16.4999 1.06001C15.7103 0.372167 14.6972 -0.00463408 13.6499 1.19396e-05C13.1853 0.000571013 12.7234 0.071371 12.2799 0.210012C11.591 0.424164 10.9691 0.813011 10.475 1.33872C9.98079 1.86443 9.63111 2.5091 9.45995 3.21001C9.33439 3.73016 9.30055 4.26823 9.35995 4.80001C9.36821 4.81894 9.37247 4.83936 9.37247 4.86001C9.37247 4.88066 9.36821 4.90109 9.35995 4.92001C9.34428 4.94777 9.32068 4.97021 9.29217 4.98446C9.26367 4.99871 9.23155 5.00413 9.19995 5.00001C7.68982 4.862 6.22287 4.42172 4.88634 3.70535C3.5498 2.98898 2.37097 2.01115 1.41995 0.830012C1.39911 0.790533 1.36723 0.757972 1.3282 0.7363C1.28918 0.714628 1.24469 0.704782 1.20016 0.707962C1.15563 0.711143 1.11299 0.727213 1.07744 0.754212C1.04189 0.781211 1.01496 0.817972 0.999947 0.860012C0.519881 1.68764 0.328153 2.65123 0.454842 3.59959C0.581531 4.54795 1.01947 5.42742 1.69995 6.10001C1.35059 6.02037 1.01403 5.89248 0.699947 5.72001C0.666165 5.70358 0.62887 5.69567 0.591325 5.69698C0.55378 5.69828 0.517126 5.70877 0.484569 5.72751C0.452012 5.74626 0.424542 5.77269 0.404561 5.80451C0.384579 5.83632 0.372695 5.87254 0.369947 5.91001C0.369106 6.75836 0.618063 7.58818 1.08577 8.29595C1.55347 9.00373 2.21921 9.55814 2.99995 9.89001H2.85995C2.61495 9.88978 2.37052 9.86634 2.12995 9.82001C2.09159 9.81343 2.0522 9.81669 2.01544 9.82949C1.97869 9.84228 1.94579 9.86419 1.91981 9.89317C1.89383 9.92214 1.87563 9.95723 1.86691 9.99516C1.85819 10.0331 1.85924 10.0726 1.86995 10.11C2.11311 10.8662 2.56006 11.5407 3.16165 12.0594C3.76325 12.5781 4.4962 12.9208 5.27995 13.05C3.96413 13.9342 2.41527 14.4076 0.829947 14.41H0.329947C0.256372 14.41 0.184919 14.4347 0.126941 14.48C0.0689621 14.5253 0.0277834 14.5886 0.00994711 14.66C0.000248452 14.7261 0.0102527 14.7937 0.0387095 14.8541C0.0671664 14.9146 0.112814 14.9653 0.169947 15C1.97714 16.0495 4.0301 16.6016 6.11995 16.6C7.87182 16.6152 9.60575 16.2465 11.1999 15.52C12.6212 14.86 13.8884 13.9096 14.9199 12.73C15.898 11.6338 16.6703 10.3703 17.1999 9.00001C17.7171 7.65605 17.988 6.22998 17.9999 4.79001V4.72001C17.9995 4.61086 18.0235 4.50299 18.0702 4.40435C18.1169 4.3057 18.1852 4.21879 18.2699 4.15001C18.9378 3.61386 19.521 2.98007 19.9999 2.27001C20.0235 2.22897 20.0339 2.18166 20.0296 2.13452C20.0253 2.08738 20.0065 2.04272 19.9759 2.00663C19.9453 1.97054 19.9043 1.94478 19.8585 1.93286C19.8126 1.92093 19.7643 1.92343 19.7199 1.94001H19.6799Z" fill="#00C3FF"/>
</g>
<defs>
<clipPath id="clip0">
<rect width="20" height="16.64" fill="white"/>
</clipPath>
</defs>
</svg>
